<?xml version="1.0" encoding="UTF-8"?>
<svg width="30px" height="31px" viewBox="0 0 30 31" version="1.1" xmlns="http://www.w3.org/2000/svg" xmlns:xlink="http://www.w3.org/1999/xlink">
    <title>icon_delete</title>
    <g id="页面-1" stroke="none" stroke-width="1" fill="none" fill-rule="evenodd">
        <g id="搜索" transform="translate(-689.000000, -219.000000)" fill="#71747C">
            <g id="icon_delete" transform="translate(688.995601, 219.000000)">
                <path d="M23.2030946,31 L7.8057031,31 C5.71053294,31 4.00439884,29.3174898 4.00439884,27.2484446 L4.00439884,7 L27.0043988,7 L27.0043988,27.2484446 C27.0043988,29.3174898 25.2995772,31 23.2030946,31 L23.2030946,31 Z M6.56419994,9.52630021 L6.56419994,27.2484446 C6.5649124,27.9248532 7.12036216,28.4729967 7.8057031,28.4737368 L23.2030946,28.4737368 C23.8890355,28.4737368 24.4445977,27.9242981 24.4445977,27.2484446 L24.4445977,9.52630021 L6.56419994,9.52630021 Z" id="Fill-1"></path>
                <path d="M18.7527722,24 C18.0652194,24 17.5025996,23.4315064 17.5025996,22.7367097 L17.5025996,13.8946395 C17.5025996,13.1998797 18.0652194,12.6314971 18.7527722,12.6314971 C19.4403616,12.6314971 20.0029448,13.1998797 20.0029448,13.8946395 L20.0029448,22.7367097 C20.0029448,23.4315064 19.4403616,24 18.7527722,24 L18.7527722,24 Z M11.2516267,24 C10.5640372,24 10.0014541,23.4315064 10.0014541,22.7367097 L10.0014541,13.8946395 C10.0014541,13.1998797 10.5640372,12.6314971 11.2516267,12.6314971 C11.9392527,12.6314971 12.5017993,13.1998797 12.5017993,13.8946395 L12.5017993,22.7367097 C12.5017993,23.4315064 11.9392527,24 11.2516267,24 L11.2516267,24 Z M22.5032533,6.31582258 L20.0029448,6.31582258 L20.0029448,3.78938993 C20.0029448,3.09355702 19.4428156,2.52628463 18.7527722,2.52628463 L11.2516267,2.52628463 C10.5627553,2.52628463 10.0014541,3.09355702 10.0014541,3.78938993 L10.0014541,6.31582258 L7.50114549,6.31582258 L7.50114549,3.78938993 C7.50114549,1.7002629 9.1838039,0 11.2516267,0 L18.7527722,0 C20.8205949,0 22.5032533,1.7002629 22.5032533,3.78938993 L22.5032533,6.31582258 Z M28.7542262,8.84210721 L1.2501726,8.84210721 C0.562546539,8.84210721 0,8.27372463 0,7.5790019 C0,6.88420517 0.562546539,6.31582258 1.2501726,6.31582258 L28.7542262,6.31582258 C29.4418523,6.31582258 30.0043988,6.88420517 30.0043988,7.5790019 C30.0043988,8.27372463 29.4418523,8.84210721 28.7542262,8.84210721 L28.7542262,8.84210721 Z" id="Fill-3"></path>
            </g>
        </g>
    </g>
</svg>