<?xml version="1.0" encoding="UTF-8"?>
<svg width="42px" height="42px" viewBox="0 0 42 42" version="1.1" xmlns="http://www.w3.org/2000/svg" xmlns:xlink="http://www.w3.org/1999/xlink">
    <title>icon_mulu</title>
    <g id="页面-1" stroke="none" stroke-width="1" fill="none" fill-rule="evenodd">
        <g id="tabbar备份-3" transform="translate(-258.000000, -96.000000)" stroke-width="3">
            <g id="tabbar" transform="translate(-1.000000, 73.000000)">
                <g id="分类" transform="translate(259.000000, 23.000000)">
                    <g id="分类" transform="translate(4.000000, 4.000000)">
                        <path d="M11.1111111,20.3888889 C11.801467,20.3888889 12.426467,20.6687109 12.8788781,21.1211219 C13.3312891,21.573533 13.6111111,22.198533 13.6111111,22.8888889 L13.6111111,22.8888889 L13.6111111,30 C13.6111111,30.6903559 13.3312891,31.3153559 12.8788781,31.767767 C12.426467,32.220178 11.801467,32.5 11.1111111,32.5 L11.1111111,32.5 L4,32.5 C3.30964406,32.5 2.68464406,32.220178 2.23223305,31.767767 C1.77982203,31.3153559 1.5,30.6903559 1.5,30 L1.5,30 L1.5,22.8888889 C1.5,22.198533 1.77982203,21.573533 2.23223305,21.1211219 C2.68464406,20.6687109 3.30964406,20.3888889 4,20.3888889 L4,20.3888889 Z M30,20.3888889 C30.6903559,20.3888889 31.3153559,20.6687109 31.767767,21.1211219 C32.220178,21.573533 32.5,22.198533 32.5,22.8888889 L32.5,22.8888889 L32.5,30 C32.5,30.6903559 32.220178,31.3153559 31.767767,31.767767 C31.3153559,32.220178 30.6903559,32.5 30,32.5 L30,32.5 L22.8888889,32.5 C22.198533,32.5 21.573533,32.220178 21.1211219,31.767767 C20.6687109,31.3153559 20.3888889,30.6903559 20.3888889,30 L20.3888889,30 L20.3888889,22.8888889 C20.3888889,22.198533 20.6687109,21.573533 21.1211219,21.1211219 C21.573533,20.6687109 22.198533,20.3888889 22.8888889,20.3888889 L22.8888889,20.3888889 Z M11.1111111,1.5 C11.801467,1.5 12.426467,1.77982203 12.8788781,2.23223305 C13.3312891,2.68464406 13.6111111,3.30964406 13.6111111,4 L13.6111111,4 L13.6111111,11.1111111 C13.6111111,11.801467 13.3312891,12.426467 12.8788781,12.8788781 C12.426467,13.3312891 11.801467,13.6111111 11.1111111,13.6111111 L11.1111111,13.6111111 L4,13.6111111 C3.30964406,13.6111111 2.68464406,13.3312891 2.23223305,12.8788781 C1.77982203,12.426467 1.5,11.801467 1.5,11.1111111 L1.5,11.1111111 L1.5,4 C1.5,3.30964406 1.77982203,2.68464406 2.23223305,2.23223305 C2.68464406,1.77982203 3.30964406,1.5 4,1.5 L4,1.5 Z" id="形状结合" stroke="#191E2E"></path>
                        <path d="M26.4444444,1.5 C28.1166399,1.5 29.6305288,2.17779114 30.7263688,3.27363116 C31.8222089,4.36947117 32.5,5.88336006 32.5,7.55555556 C32.5,9.22775105 31.8222089,10.7416399 30.7263688,11.83748 C29.6305288,12.93332 28.1166399,13.6111111 26.4444444,13.6111111 L26.4444444,13.6111111 L22.8888889,13.6111111 C22.198533,13.6111111 21.573533,13.3312891 21.1211219,12.8788781 C20.6687109,12.426467 20.3888889,11.801467 20.3888889,11.1111111 L20.3888889,11.1111111 L20.3888889,7.55555556 C20.3888889,5.88336006 21.06668,4.36947117 22.16252,3.27363116 C23.2583601,2.17779114 24.772249,1.5 26.4444444,1.5 Z" id="矩形备份-2" stroke="#FF594D"></path>
                    </g>
                </g>
            </g>
        </g>
    </g>
</svg>