<?xml version="1.0" encoding="UTF-8"?>
<svg width="60px" height="60px" viewBox="0 0 60 60" version="1.1" xmlns="http://www.w3.org/2000/svg" xmlns:xlink="http://www.w3.org/1999/xlink">
    <title>待处理</title>
    <defs>
        <linearGradient x1="50%" y1="0%" x2="50%" y2="100%" id="linearGradient-1">
            <stop stop-color="#FE8955" offset="0%"></stop>
            <stop stop-color="#FE5E4D" offset="100%"></stop>
        </linearGradient>
        <linearGradient x1="50%" y1="0%" x2="50%" y2="100%" id="linearGradient-2">
            <stop stop-color="#FE8855" offset="0%"></stop>
            <stop stop-color="#FE5E4D" offset="100%"></stop>
        </linearGradient>
    </defs>
    <g id="页面-1" stroke="none" stroke-width="1" fill="none" fill-rule="evenodd">
        <g id="个人中心备份" transform="translate(-72.000000, -595.000000)">
            <g id="编组-4" transform="translate(67.000000, 594.000000)">
                <g id="编组-13" transform="translate(5.000000, 1.000000)">
                    <g id="待处理" transform="translate(8.000000, 5.000000)">
                        <path d="M34,3 C37.3137085,3 40,5.6862915 40,9 L40.0009621,30.7502564 C38.7609682,30.2658672 37.4115324,30 36,30 C29.9248678,30 25,34.9248678 25,41 C25,44.1523882 26.3260579,46.995059 28.4507943,49.0006329 L6,49 C2.6862915,49 4.05812251e-16,46.3137085 0,43 L0,9 C-4.05812251e-16,5.6862915 2.6862915,3 6,3 L34,3 Z" id="形状结合" fill="url(#linearGradient-1)"></path>
                        <rect id="矩形" fill="#FFB796" x="9" y="0" width="22" height="6" rx="3"></rect>
                        <rect id="矩形" fill="#FFFFFF" x="5" y="16" width="22" height="4" rx="2"></rect>
                        <rect id="矩形备份-9" fill="#FFFFFF" x="5" y="26" width="14" height="4" rx="2"></rect>
                        <circle id="椭圆形" fill="url(#linearGradient-2)" cx="36" cy="41" r="9"></circle>
                        <rect id="矩形" fill="#FFFFFF" x="33" y="36" width="2.66666667" height="8" rx="1.33333333"></rect>
                        <rect id="矩形" fill="#FFFFFF" transform="translate(37.000000, 42.666667) rotate(90.000000) translate(-37.000000, -42.666667) " x="35.6666667" y="38.6666667" width="2.66666667" height="8" rx="1.33333333"></rect>
                    </g>
                </g>
            </g>
        </g>
    </g>
</svg>