<?xml version="1.0" encoding="UTF-8"?>
<svg width="42px" height="42px" viewBox="0 0 42 42" version="1.1" xmlns="http://www.w3.org/2000/svg" xmlns:xlink="http://www.w3.org/1999/xlink">
    <title>icon_xiaoxi</title>
    <g id="页面-1" stroke="none" stroke-width="1" fill="none" fill-rule="evenodd">
        <g id="tabbar备份-3" transform="translate(-445.000000, -96.000000)" stroke-width="3">
            <g id="tabbar" transform="translate(-1.000000, 73.000000)">
                <g id="消息" transform="translate(446.000000, 23.000000)">
                    <g id="icon_xiaoxi" transform="translate(2.960341, 4.020258)">
                        <path d="M18.0396592,1.5 C22.6445595,1.5 26.8215649,3.02170312 29.8420636,5.50917264 C32.746769,7.90128296 34.5793184,11.1953684 34.5793184,14.8561899 C34.5793184,18.5750565 32.8529849,21.9254856 29.9338715,24.3294613 C26.995144,26.7495898 22.866775,28.2123798 18.0396592,28.2123798 C16.8640095,28.2123798 14.9947499,29.316389 13.1387514,30.6088675 C12.1366699,31.3066962 11.088033,32.3585713 10.3333006,32.5195215 C10.2155123,31.9461583 10.2007815,31.1871061 10.1731996,30.4346204 C10.0869373,28.0812251 9.52667473,26.3334323 8.68917579,25.8679422 C6.46850324,24.6336705 4.62845294,22.9687821 3.36296023,21.0097899 C2.17741172,19.1745519 1.5,17.0810783 1.5,14.8561899 C1.5,11.1953684 3.33254933,7.90128296 6.23725472,5.50917264 C9.25775343,3.02170312 13.4347588,1.5 18.0396592,1.5 Z" id="椭圆形" stroke="#191E2E"></path>
                        <path d="M8.48925138,15.9173463 C9.196689,19.4545344 11.6727206,21.2231285 15.9173463,21.2231285" id="路径-24" stroke="#FF594D" stroke-linecap="round"></path>
                    </g>
                </g>
            </g>
        </g>
    </g>
</svg>