<?xml version="1.0" encoding="UTF-8"?>
<svg width="70px" height="70px" viewBox="0 0 70 70" version="1.1" xmlns="http://www.w3.org/2000/svg" xmlns:xlink="http://www.w3.org/1999/xlink">
    <title>icon_qq</title>
    <g id="页面-1" stroke="none" stroke-width="1" fill="none" fill-rule="evenodd">
        <g id="登录-手机登录" transform="translate(-432.000000, -1428.000000)">
            <g id="编组-2" transform="translate(248.000000, 1428.000000)">
                <g id="icon_qq" transform="translate(184.000000, 0.000000)">
                    <circle id="椭圆形备份" fill="#58A9EC" cx="35" cy="35" r="35"></circle>
                    <path d="M50.9890526,40.8849774 C50.2486392,36.5284998 47.1388224,33.6741948 47.1388224,33.6741948 C47.5833618,29.7190693 45.9536185,29.017096 45.9536185,29.017096 C45.611839,16.7806208 35.2182767,16.9951468 35.0001003,17.000893 C34.7817733,16.9951468 24.3872065,16.7806208 24.0465822,29.0182256 C24.0465822,29.0182256 22.4168389,29.7201989 22.8614285,33.6753735 C22.8614285,33.6753735 19.7516117,36.5296785 19.0109974,40.8859597 C19.0109974,40.8859597 18.6156783,48.2465863 22.5653535,41.7880197 C22.5653535,41.7880197 23.4544825,44.2409725 25.0832715,46.4449221 C25.0832715,46.4449221 22.1700344,47.4463869 22.4180443,50.0503625 C22.4180443,50.0503625 22.318549,52.9537314 28.6386321,52.7548234 C28.6386321,52.7548234 33.0811629,52.4050401 34.4148814,50.5017608 L35.5898897,50.5017608 C36.9224029,52.4050401 41.3658879,52.7548234 41.3658879,52.7548234 C47.6838113,52.9549101 47.5855215,50.0503625 47.5855215,50.0503625 C47.8313717,47.4475656 44.9202943,46.4449221 44.9202943,46.4449221 C46.5490833,44.2409725 47.4382122,41.7880197 47.4382122,41.7880197 C51.3834175,48.2465863 50.9890526,40.8849774 50.9890526,40.8849774" id="Fill-1" fill="#FFFFFF"></path>
                </g>
            </g>
        </g>
    </g>
</svg>