<?xml version="1.0" encoding="UTF-8"?>
<svg width="70px" height="70px" viewBox="0 0 70 70" version="1.1" xmlns="http://www.w3.org/2000/svg" xmlns:xlink="http://www.w3.org/1999/xlink">
    <title>icon_weixin</title>
    <g id="页面-1" stroke="none" stroke-width="1" fill="none" fill-rule="evenodd">
        <g id="登录-手机登录" transform="translate(-248.000000, -1428.000000)">
            <g id="icon_weixin" transform="translate(248.000000, 1428.000000)">
                <circle id="椭圆形" fill="#24C672" cx="35" cy="35" r="35"></circle>
                <path d="M48.0405859,38.1223166 C47.2732715,38.1223166 46.4923682,37.3489589 46.4923682,36.559095 C46.4923682,35.7802892 47.2705322,34.9960353 48.0405859,34.9960353 C49.2121289,34.9960353 49.990293,35.7802892 49.990293,36.559095 C49.990293,37.3489589 49.2121289,38.1223166 48.0405859,38.1223166 M39.4742822,38.1223166 C38.7015967,38.1223166 37.9176855,37.3489589 37.9176855,36.559095 C37.9176855,35.7802892 38.7015967,34.9960353 39.4742822,34.9960353 C40.6567285,34.9960353 41.424043,35.7802892 41.424043,36.559095 C41.424043,37.3489589 40.6567285,38.1223166 39.4742822,38.1223166 M57,40.0804431 C57,33.8276647 50.768457,28.7320371 43.7696533,28.7320371 C36.3586719,28.7320371 30.5257178,33.8304158 30.5257178,40.0804431 C30.5257178,46.3496196 36.3613574,51.4285793 43.7696533,51.4285793 C45.3207715,51.4285793 46.8855322,51.0391764 48.4421289,50.6470225 L52.7127393,53 L51.5411963,49.0894648 C54.6679785,46.7308235 57,43.6072932 57,40.0804431 M23.5133252,27.5584343 C22.3444678,27.5584343 21.1673926,26.7739646 21.1673926,25.6030588 C21.1673926,24.4264891 22.3444678,23.6503804 23.5133252,23.6503804 C24.6819141,23.6503804 25.4576074,24.4236842 25.4576074,25.6030588 C25.4576074,26.7739646 24.6819141,27.5584343 23.5133252,27.5584343 M34.4115967,23.6503804 C35.5886719,23.6503804 36.3613574,24.4264891 36.3613574,25.6030588 C36.3613574,26.7739646 35.5886719,27.5584343 34.4115967,27.5584343 C33.2481641,27.5584343 32.0768896,26.7739646 32.0768896,25.6030588 C32.0768896,24.4236842 33.2454785,23.6503804 34.4115967,23.6503804 M42.7825,27.8899041 C43.2885645,27.8899041 43.7863037,27.9284722 44.2868359,27.9836003 C42.9392285,21.6813577 36.2320752,17 28.5732715,17 C20.0124463,17 13,22.8577655 13,30.3008147 C13,34.5954665 15.3320215,38.1223166 19.231543,40.861946 L17.6749463,45.5653118 L23.1198926,42.8255206 C25.0669141,43.2094754 26.6289355,43.6072932 28.5732715,43.6072932 C29.0627393,43.6072932 29.5467822,43.5851233 30.025293,43.5492522 C29.7228467,42.5024656 29.544043,41.4087499 29.544043,40.2681052 C29.5467822,33.4355108 35.3878467,27.8899041 42.7825,27.8899041" id="Fill-1" fill="#FFFFFF"></path>
            </g>
        </g>
    </g>
</svg>